<?xml version="1.0" encoding="utf-8"?>
<!-- Generator: Adobe Illustrator 23.0.3, SVG Export Plug-In . SVG Version: 6.00 Build 0)  -->
<svg version="1.1" id="Layer_1" xmlns="http://www.w3.org/2000/svg" xmlns:xlink="http://www.w3.org/1999/xlink" x="0px" y="0px"
	 viewBox="0 0 24 24" style="enable-background:new 0 0 24 24;" xml:space="preserve">
<style type="text/css">
	.st0{fill:none;}
	.st1{fill:#BAB86C;}
</style>
<path class="st0" d="M0,0h24v24H0V0z"/>
<path class="st1" d="M8,1.3c1-1.4,7-1.5,7.9,0c1.5,2.2-0.3,10.6-2,12.5c-0.7,0.9-3.2,0.9-4,0C8.4,11.9,6.6,3.4,8,1.3z"/>
<path class="st1" d="M9.3,22.8c-0.7-0.7-1.1-1.5-1.1-2.4c0-1,0.4-1.8,1.1-2.4c0.7-0.6,1.6-1,2.7-1s2,0.3,2.7,1
	c0.7,0.6,1.1,1.4,1.1,2.4c0,0.9-0.4,1.8-1.1,2.4c-0.7,0.7-1.6,1-2.7,1S10,23.5,9.3,22.8z"/>
</svg>
