<?xml version="1.0" encoding="utf-8"?>
<!-- Generator: Adobe Illustrator 23.0.3, SVG Export Plug-In . SVG Version: 6.00 Build 0)  -->
<svg version="1.1" id="Layer_1" xmlns="http://www.w3.org/2000/svg" xmlns:xlink="http://www.w3.org/1999/xlink" x="0px" y="0px"
	 viewBox="0 0 24 24" style="enable-background:new 0 0 24 24;" xml:space="preserve">
<style type="text/css">
	.st0{fill:none;}
	.st1{stroke:#000000;stroke-width:0.5;stroke-miterlimit:10;}
</style>
<path class="st0" d="M0,0h24v24H0V0z"/>
<path class="st1" d="M22.4,16.7c0,0.2-0.1,0.4-0.1,0.6c-0.2,0.6-0.5,1-0.9,1.5c-0.7,0.7-1.4,1.3-2.3,1.8c-0.9,0.5-1.8,1-2.8,1.4
	c-0.1,0-0.1,0.1-0.1,0.1c-0.2,0.5-0.6,0.8-1.2,0.8c-0.3,0-0.5-0.1-0.8-0.1c-0.1,0-0.1,0-0.2,0c-0.1,0-0.1,0-0.2-0.1
	c-0.3,0-0.6-0.1-0.8-0.1c-1.2-0.2-2.4-0.4-3.6-0.6c-0.2,0-0.5-0.1-0.7-0.1c-0.3-0.1-0.6-0.2-0.8-0.5c0,0-0.1,0-0.1,0
	c-0.5,0.1-1-0.1-1.4-0.5c-0.8-0.9-1.6-1.8-2.4-2.7C3.5,17.6,3,17,2.5,16.4c-0.4-0.5-0.5-1.1-0.2-1.6c0.1-0.1,0.2-0.2,0.3-0.4
	c0,0,0.1-0.1,0.1-0.2c-0.3-1.8-0.7-3.6-1-5.4C1.5,8.2,1.8,7.6,2.4,7.4c0.2-0.1,0.3-0.1,0.5-0.1C3,7.3,3,7.2,3,7.2C3.7,6,4.4,5,5.3,4
	c0.6-0.8,1.3-1.5,2.1-2.1c0.5-0.3,1-0.6,1.6-0.7c0.6-0.1,1.2,0,1.7,0.4c0.4,0.3,0.6,0.6,0.7,1.1c0.1,0.6,0.1,1.1,0.1,1.7
	c-0.1,1.1-0.4,2.2-0.7,3.3c0,0,0,0.1,0,0.1c0,0,0.1,0,0.1,0c0.7,0.3,1,0.8,1.1,1.6c0,0.2,0,0.3,0.1,0.5c0,0,0,0.1,0.1,0.1
	c0.2,0.1,0.4,0.3,0.6,0.5c0.4,0.5,0.8,1,1.1,1.5c0.2,0.2,0.3,0.5,0.4,0.8c0,0.1,0.1,0.1,0.1,0.1c0.3,0.1,0.6,0.2,0.9,0.4
	c0.4,0.3,0.7,0.8,0.8,1.3c0,0,0,0,0,0c0.2,0,0.4,0,0.5-0.1c1-0.1,2-0.1,3-0.1c0.6,0.1,1.2,0.2,1.7,0.4c0.7,0.3,1,0.9,1.1,1.6
	c0,0.1,0,0.1,0,0.2C22.4,16.6,22.4,16.6,22.4,16.7z M13.2,13.1c0-0.2-0.1-0.4-0.2-0.6c-0.4-0.5-0.8-1-1.2-1.5
	c-0.2-0.3-0.7-0.4-1-0.2c-2.5,1.4-5,2.9-7.5,4.3c-0.3,0.2-0.3,0.4-0.1,0.6c0.4,0.4,0.8,0.9,1.2,1.3c0.9,1,1.8,2,2.7,3.1
	c0.1,0.1,0.1,0.1,0.2,0.2c0.2,0.1,0.3,0,0.5-0.2c1.7-2.1,3.4-4.3,5.2-6.4C13.2,13.5,13.2,13.3,13.2,13.1z M14.2,13.8
	c-0.1,0.2-0.2,0.4-0.4,0.5c-1.6,2-3.2,3.9-4.7,5.9c-0.1,0.1-0.2,0.3-0.4,0.4c0.1,0.1,0.2,0.1,0.3,0.2c0.4,0.1,0.8,0.1,1.1,0.2
	c1.5,0.3,3.1,0.5,4.6,0.8c0.1,0,0.2,0,0.2,0c0.1,0,0.2-0.1,0.2-0.2c0-0.6,0-1.2-0.1-1.7c0-1.2-0.1-2.4-0.1-3.6c0-0.5,0-1.1-0.1-1.6
	c0-0.1,0-0.2-0.1-0.2C14.8,14,14.5,13.9,14.2,13.8z M11,9.7c0-0.2,0-0.3-0.1-0.4c-0.1-0.3-0.3-0.5-0.6-0.5C9.1,8.6,7.9,8.6,6.7,8.5
	C5.5,8.4,4.2,8.4,2.9,8.3c-0.2,0-0.3,0.1-0.3,0.3c0,0,0,0.1,0,0.1c0.3,1.5,0.5,2.9,0.8,4.4c0,0.2,0.1,0.4,0.1,0.6
	c0.1,0,0.1-0.1,0.1-0.1c2.2-1.2,4.3-2.5,6.5-3.7C10.4,9.8,10.7,9.7,11,9.7z M9.7,7.6C9.7,7.6,9.7,7.5,9.7,7.6
	c0.3-0.9,0.5-1.8,0.6-2.7c0.1-0.5,0.2-1.1,0.1-1.6c0-0.2-0.1-0.4-0.1-0.6c0-0.2-0.1-0.3-0.3-0.3C9.8,2.3,9.6,2.2,9.4,2.2
	C9,2.2,8.7,2.4,8.3,2.6C7.7,2.9,7.2,3.4,6.8,3.9c-1,1-1.8,2.2-2.5,3.4c0,0,0,0,0,0.1C6,7.4,7.8,7.5,9.7,7.6z M16.1,15.6
	c0.1,1.7,0.1,3.5,0.2,5.2c0,0,0.1,0,0.1,0c0.8-0.4,1.6-0.8,2.4-1.2c0.7-0.4,1.3-0.9,1.9-1.5c0.3-0.3,0.5-0.6,0.7-1
	c0.2-0.5,0.1-1.2-0.7-1.4c-0.5-0.1-1-0.2-1.6-0.2c-0.7,0-1.5,0-2.2,0.1C16.6,15.5,16.3,15.5,16.1,15.6z"/>
</svg>
